<?xml version="1.0" standalone="no"?>
<!DOCTYPE svg PUBLIC "-//W3C//DTD SVG 20010904//EN"
 "http://www.w3.org/TR/2001/REC-SVG-20010904/DTD/svg10.dtd">
<svg version="1.0" xmlns="http://www.w3.org/2000/svg"
 width="486.000000pt" height="486.000000pt" viewBox="0 0 486.000000 486.000000"
 preserveAspectRatio="xMidYMid meet">
<metadata>
Created by potrace 1.14, written by Peter Selinger 2001-2017
</metadata>
<g transform="translate(0.000000,486.000000) scale(0.100000,-0.100000)"
fill="#000000" stroke="none">
<path d="M4186 4778 c-3 -7 -4 -20 -4 -28 0 -27 -40 -174 -72 -265 -119 -336
-329 -626 -605 -834 -136 -103 -256 -171 -655 -374 -406 -205 -422 -214 -535
-282 -485 -293 -769 -617 -908 -1036 -72 -217 -100 -417 -99 -699 1 -96 3
-184 5 -195 3 -11 8 -58 12 -105 l7 -85 -50 70 c-60 84 -149 251 -190 355
-314 797 54 1652 908 2112 187 101 434 197 638 249 89 23 116 38 70 40 -13 0
-43 3 -68 7 -60 9 -360 9 -435 -1 -505 -63 -947 -318 -1255 -722 -349 -459
-462 -1066 -301 -1622 183 -634 679 -1114 1324 -1282 42 -11 96 -23 120 -26
23 -3 50 -9 61 -12 20 -6 21 -7 -21 60 -81 130 -169 310 -224 459 -72 196
-108 394 -107 588 3 421 187 788 558 1111 97 84 188 150 355 257 31 19 361
182 370 182 5 0 -48 -37 -116 -83 -331 -221 -559 -444 -732 -714 -79 -123
-182 -350 -201 -444 -3 -13 -7 -35 -10 -49 -8 -35 -24 -126 -32 -180 -7 -52
-8 -261 0 -305 8 -52 20 -120 22 -127 1 -5 2 -12 3 -18 0 -5 4 -10 9 -10 4 0
7 46 8 103 1 179 23 312 79 482 57 175 187 404 318 560 78 93 263 272 367 356
80 64 325 235 395 276 11 6 71 43 133 82 321 202 484 363 652 644 l22 38 -118
-78 c-226 -147 -388 -219 -644 -288 -526 -141 -847 -321 -1115 -626 -217 -247
-411 -659 -450 -959 -3 -25 -8 -56 -11 -70 -7 -41 -7 -229 0 -310 16 -156 71
-336 142 -462 50 -89 45 -87 -32 7 -125 155 -223 385 -259 605 -21 130 -13
485 14 618 33 165 104 351 184 477 144 230 414 468 683 603 89 45 219 105 219
102 0 -1 23 9 50 23 28 14 73 35 100 47 202 90 356 165 503 247 474 262 754
551 875 903 52 152 62 218 61 415 -1 195 -6 253 -18 213z"/>
<path d="M3919 2897 c-218 -198 -355 -306 -687 -538 -352 -246 -435 -311 -575
-454 -174 -178 -339 -446 -420 -685 -102 -302 -106 -585 -12 -867 34 -102 84
-211 134 -291 l26 -43 120 6 c108 5 204 16 275 30 57 11 68 14 130 30 562 144
1050 583 1254 1127 37 101 81 256 91 328 4 24 8 47 10 50 6 10 18 177 19 268
5 340 -101 713 -287 1004 l-42 67 -36 -32z m-135 -1434 c-16 -64 -77 -230
-116 -311 -167 -352 -429 -605 -751 -726 -99 -37 -256 -76 -306 -76 l-30 0 29
69 c143 347 431 655 849 906 68 40 311 164 324 165 4 0 4 -12 1 -27z"/>
<path d="M2027 740 c8 -30 21 -34 15 -5 -2 14 -8 25 -12 25 -5 0 -6 -9 -3 -20z"/>
</g>
</svg>
